<svg width="35" height="35" viewBox="0 0 35 35" fill="none" xmlns="http://www.w3.org/2000/svg">
<g clip-path="url(#clip0_55_659)">
<path d="M17.5 32.0832C21.5271 32.0832 25.1729 30.4509 27.812 27.8118C30.451 25.1727 32.0834 21.5269 32.0834 17.4998C32.0834 13.4728 30.451 9.82696 27.812 7.18786C25.1729 4.5488 21.5271 2.9165 17.5 2.9165C13.473 2.9165 9.82714 4.5488 7.18804 7.18786C4.54898 9.82696 2.91669 13.4728 2.91669 17.4998C2.91669 21.5269 4.54898 25.1727 7.18804 27.8118C9.82714 30.4509 13.473 32.0832 17.5 32.0832Z" fill="#2F88FF" stroke="black" stroke-width="4" stroke-linejoin="round"/>
<path d="M17.5 20.8722V17.9556C19.9162 17.9556 21.875 15.9968 21.875 13.5806C21.875 11.1643 19.9162 9.20557 17.5 9.20557C15.0838 9.20557 13.125 11.1643 13.125 13.5806" stroke="white" stroke-width="4" stroke-linecap="round" stroke-linejoin="round"/>
<path fill-rule="evenodd" clip-rule="evenodd" d="M17.5 27.4344C18.5068 27.4344 19.323 26.6183 19.323 25.6115C19.323 24.6047 18.5068 23.7886 17.5 23.7886C16.4933 23.7886 15.6771 24.6047 15.6771 25.6115C15.6771 26.6183 16.4933 27.4344 17.5 27.4344Z" fill="white"/>
</g>
<defs>
<clipPath id="clip0_55_659">
<rect width="35" height="35" fill="white"/>
</clipPath>
</defs>
</svg>
