<svg width="40" height="40" viewBox="0 0 40 40" fill="none" xmlns="http://www.w3.org/2000/svg">
<circle cx="20" cy="20" r="20" fill="#FFC500"/>
<path d="M12 13H15L17 11H23L25 13H28C28.5304 13 29.0391 13.2107 29.4142 13.5858C29.7893 13.9609 30 14.4696 30 15V27C30 27.5304 29.7893 28.0391 29.4142 28.4142C29.0391 28.7893 28.5304 29 28 29H12C11.4696 29 10.9609 28.7893 10.5858 28.4142C10.2107 28.0391 10 27.5304 10 27V15C10 14.4696 10.2107 13.9609 10.5858 13.5858C10.9609 13.2107 11.4696 13 12 13ZM20 16C18.6739 16 17.4021 16.5268 16.4645 17.4645C15.5268 18.4021 15 19.6739 15 21C15 22.3261 15.5268 23.5979 16.4645 24.5355C17.4021 25.4732 18.6739 26 20 26C21.3261 26 22.5979 25.4732 23.5355 24.5355C24.4732 23.5979 25 22.3261 25 21C25 19.6739 24.4732 18.4021 23.5355 17.4645C22.5979 16.5268 21.3261 16 20 16ZM20 18C20.7956 18 21.5587 18.3161 22.1213 18.8787C22.6839 19.4413 23 20.2044 23 21C23 21.7956 22.6839 22.5587 22.1213 23.1213C21.5587 23.6839 20.7956 24 20 24C19.2044 24 18.4413 23.6839 17.8787 23.1213C17.3161 22.5587 17 21.7956 17 21C17 20.2044 17.3161 19.4413 17.8787 18.8787C18.4413 18.3161 19.2044 18 20 18Z" fill="white"/>
</svg>
