<svg width="40" height="40" viewBox="0 0 40 40" fill="none" xmlns="http://www.w3.org/2000/svg">
<path opacity="0.15" d="M5.54999 36.1999C5.54999 36.3706 5.9425 36.5397 6.70512 36.6974C7.46773 36.8551 8.58551 36.9984 9.99464 37.1191C11.4038 37.2399 13.0767 37.3356 14.9178 37.4009C16.7589 37.4663 18.7322 37.4999 20.725 37.4999C22.7178 37.4999 24.6911 37.4663 26.5322 37.4009C28.3733 37.3356 30.0462 37.2399 31.4553 37.1191C32.8645 36.9984 33.9822 36.8551 34.7449 36.6974C35.5075 36.5397 35.9 36.3706 35.9 36.1999C35.9 36.0292 35.5075 35.8601 34.7449 35.7024C33.9822 35.5447 32.8645 35.4014 31.4553 35.2807C30.0462 35.1599 28.3733 35.0642 26.5322 34.9989C24.6911 34.9335 22.7178 34.8999 20.725 34.8999C18.7322 34.8999 16.7589 34.9335 14.9178 34.9989C13.0767 35.0642 11.4038 35.1599 9.99464 35.2807C8.58551 35.4014 7.46773 35.5447 6.70512 35.7024C5.9425 35.8601 5.54999 36.0292 5.54999 36.1999Z" fill="#45413C"/>
<path d="M1.26752 17.9274L30.8725 5.56152L38.725 24.3624L9.12085 36.729L1.26752 17.9274Z" fill="#FFE500"/>
<path d="M29.275 6.23343L2.87502 17.2668C2.45067 17.4436 2.11394 17.7817 1.93891 18.2068C1.76387 18.6319 1.76487 19.1091 1.94168 19.5334L3.02502 22.1334C2.93747 21.9233 2.89216 21.698 2.89169 21.4704C2.89121 21.2428 2.93557 21.0173 3.02224 20.8068C3.10891 20.5963 3.23619 20.405 3.3968 20.2437C3.55742 20.0824 3.74823 19.9543 3.95835 19.8668L30.3584 8.83343C30.7841 8.65858 31.2616 8.65849 31.6874 8.83318C32.1132 9.00787 32.4531 9.34328 32.6334 9.76676L31.5417 7.16676C31.3649 6.74242 31.0267 6.40569 30.6016 6.23066C30.1766 6.05562 29.6994 6.05662 29.275 6.23343Z" fill="#FFF48C"/>
<path d="M1.26752 17.9274L30.8725 5.56152L38.725 24.3624L9.12085 36.729L1.26752 17.9274Z" stroke="#45413C" stroke-linecap="round" stroke-linejoin="round"/>
<path d="M2.94751 21.9306L32.5525 9.56396L34.055 13.164L4.45084 25.5281L2.94751 21.9306Z" fill="#656769" stroke="#45413C" stroke-linecap="round" stroke-linejoin="round"/>
<path d="M10.49 25.3607L32.89 16.0049L33.8917 18.404L11.4917 27.7599L10.49 25.3607Z" fill="white" stroke="#45413C" stroke-linecap="round" stroke-linejoin="round"/>
<path d="M29.3583 22.1752L34.5558 20.0044L35.8925 23.2027L30.6942 25.3744L29.3583 22.1752Z" fill="#DAEDF7" stroke="#45413C" stroke-linecap="round" stroke-linejoin="round"/>
<path d="M12.8834 29.9916L19.6917 27.1499M22.4917 25.9832L25.6917 24.6499" stroke="#45413C" stroke-linecap="round" stroke-linejoin="round"/>
</svg>
