<svg width="53" height="53" viewBox="0 0 53 53" fill="none" xmlns="http://www.w3.org/2000/svg">
<circle opacity="0.1" cx="26.5" cy="26.5" r="26.5" fill="#F7B731"/>
<path d="M16.5 28.4062C21.4188 28.4062 25.4062 24.4188 25.4062 19.5C25.4062 14.5812 21.4188 10.5938 16.5 10.5938C11.5812 10.5938 7.59375 14.5812 7.59375 19.5C7.59375 24.4188 11.5812 28.4062 16.5 28.4062Z" fill="url(#paint0_linear_292_451)"/>
<path fill-rule="evenodd" clip-rule="evenodd" d="M12.6 15H41.4C42.2837 15 43 15.7163 43 16.6V34.2C43 35.0837 42.2837 35.8 41.4 35.8H12.6C11.7163 35.8 11 35.0837 11 34.2V16.6C11 15.7163 11.7163 15 12.6 15Z" fill="url(#paint1_linear_292_451)"/>
<path d="M21.25 18.9953L16.5 14.4531L11.75 18.9953H14.8969V24.5469H17.9547V18.9953H21.25Z" fill="url(#paint2_linear_292_451)"/>
<path d="M23.0801 23.49V24.175H22.1501V27H21.2951V24.175H20.3651V23.49H23.0801ZM24.7792 27.04C24.5059 27.04 24.2592 26.9817 24.0392 26.865C23.8226 26.7483 23.6509 26.5817 23.5242 26.365C23.4009 26.1483 23.3392 25.895 23.3392 25.605C23.3392 25.3183 23.4026 25.0667 23.5292 24.85C23.6559 24.63 23.8292 24.4617 24.0492 24.345C24.2692 24.2283 24.5159 24.17 24.7892 24.17C25.0626 24.17 25.3092 24.2283 25.5292 24.345C25.7492 24.4617 25.9226 24.63 26.0492 24.85C26.1759 25.0667 26.2392 25.3183 26.2392 25.605C26.2392 25.8917 26.1742 26.145 26.0442 26.365C25.9176 26.5817 25.7426 26.7483 25.5192 26.865C25.2992 26.9817 25.0526 27.04 24.7792 27.04ZM24.7792 26.3C24.9426 26.3 25.0809 26.24 25.1942 26.12C25.3109 26 25.3692 25.8283 25.3692 25.605C25.3692 25.3817 25.3126 25.21 25.1992 25.09C25.0892 24.97 24.9526 24.91 24.7892 24.91C24.6226 24.91 24.4842 24.97 24.3742 25.09C24.2642 25.2067 24.2092 25.3783 24.2092 25.605C24.2092 25.8283 24.2626 26 24.3692 26.12C24.4792 26.24 24.6159 26.3 24.7792 26.3ZM27.5478 24.605C27.6311 24.475 27.7461 24.37 27.8928 24.29C28.0395 24.21 28.2111 24.17 28.4078 24.17C28.6378 24.17 28.8461 24.2283 29.0328 24.345C29.2195 24.4617 29.3661 24.6283 29.4728 24.845C29.5828 25.0617 29.6378 25.3133 29.6378 25.6C29.6378 25.8867 29.5828 26.14 29.4728 26.36C29.3661 26.5767 29.2195 26.745 29.0328 26.865C28.8461 26.9817 28.6378 27.04 28.4078 27.04C28.2145 27.04 28.0428 27 27.8928 26.92C27.7461 26.84 27.6311 26.7367 27.5478 26.61V28.33H26.6928V24.21H27.5478V24.605ZM28.7678 25.6C28.7678 25.3867 28.7078 25.22 28.5878 25.1C28.4711 24.9767 28.3261 24.915 28.1528 24.915C27.9828 24.915 27.8378 24.9767 27.7178 25.1C27.6011 25.2233 27.5428 25.3917 27.5428 25.605C27.5428 25.8183 27.6011 25.9867 27.7178 26.11C27.8378 26.2333 27.9828 26.295 28.1528 26.295C28.3228 26.295 28.4678 26.2333 28.5878 26.11C28.7078 25.9833 28.7678 25.8133 28.7678 25.6ZM31.9859 23.49V25.59C31.9859 25.8 32.0376 25.9617 32.1409 26.075C32.2443 26.1883 32.3959 26.245 32.5959 26.245C32.7959 26.245 32.9493 26.1883 33.0559 26.075C33.1626 25.9617 33.2159 25.8 33.2159 25.59V23.49H34.0709V25.585C34.0709 25.8983 34.0043 26.1633 33.8709 26.38C33.7376 26.5967 33.5576 26.76 33.3309 26.87C33.1076 26.98 32.8576 27.035 32.5809 27.035C32.3043 27.035 32.0559 26.9817 31.8359 26.875C31.6193 26.765 31.4476 26.6017 31.3209 26.385C31.1943 26.165 31.1309 25.8983 31.1309 25.585V23.49H31.9859ZM35.5263 24.605C35.6097 24.475 35.7247 24.37 35.8713 24.29C36.018 24.21 36.1897 24.17 36.3863 24.17C36.6163 24.17 36.8247 24.2283 37.0113 24.345C37.198 24.4617 37.3447 24.6283 37.4513 24.845C37.5613 25.0617 37.6163 25.3133 37.6163 25.6C37.6163 25.8867 37.5613 26.14 37.4513 26.36C37.3447 26.5767 37.198 26.745 37.0113 26.865C36.8247 26.9817 36.6163 27.04 36.3863 27.04C36.193 27.04 36.0213 27 35.8713 26.92C35.7247 26.84 35.6097 26.7367 35.5263 26.61V28.33H34.6713V24.21H35.5263V24.605ZM36.7463 25.6C36.7463 25.3867 36.6863 25.22 36.5663 25.1C36.4497 24.9767 36.3047 24.915 36.1313 24.915C35.9613 24.915 35.8163 24.9767 35.6963 25.1C35.5797 25.2233 35.5213 25.3917 35.5213 25.605C35.5213 25.8183 35.5797 25.9867 35.6963 26.11C35.8163 26.2333 35.9613 26.295 36.1313 26.295C36.3013 26.295 36.4463 26.2333 36.5663 26.11C36.6863 25.9833 36.7463 25.8133 36.7463 25.6Z" fill="url(#paint3_linear_292_451)"/>
<defs>
<linearGradient id="paint0_linear_292_451" x1="6" y1="14" x2="70" y2="51.5" gradientUnits="userSpaceOnUse">
<stop stop-color="#FFC500"/>
<stop offset="1" stop-color="#D0A100"/>
</linearGradient>
<linearGradient id="paint1_linear_292_451" x1="11" y1="25.4" x2="43" y2="25.4" gradientUnits="userSpaceOnUse">
<stop stop-color="#FFC500"/>
<stop offset="1" stop-color="#D0A100"/>
</linearGradient>
<linearGradient id="paint2_linear_292_451" x1="16.5" y1="14.4531" x2="16.5" y2="24.5469" gradientUnits="userSpaceOnUse">
<stop/>
<stop offset="1" stop-color="#3A3333"/>
</linearGradient>
<linearGradient id="paint3_linear_292_451" x1="29" y1="21" x2="29" y2="30" gradientUnits="userSpaceOnUse">
<stop/>
<stop offset="1" stop-color="#3A3333"/>
</linearGradient>
</defs>
</svg>
