<svg width="54" height="53" viewBox="0 0 54 53" fill="none" xmlns="http://www.w3.org/2000/svg">
<circle opacity="0.1" cx="27.4502" cy="26.5" r="26.5" fill="#F7B731"/>
<path d="M16 32.4063V18.75C16 17.4802 16.3297 16.4677 16.989 15.7126C17.6483 14.9574 18.5166 14.3824 19.5938 13.9876C20.6719 13.5927 21.9 13.3292 23.2781 13.1969C24.6561 13.0647 26.0635 12.9991 27.5 13C29.0813 13 30.5729 13.0661 31.9749 13.1984C33.377 13.3306 34.5989 13.5942 35.6406 13.989C36.6823 14.3838 37.5026 14.9588 38.1016 15.714C38.7005 16.4692 39 17.4812 39 18.75V32.4063C39 33.8198 38.5151 35.012 37.5453 35.9828C36.5754 36.9536 35.3832 37.4385 33.9687 37.4375L36.125 39.5938V40.3125H33.25L30.375 37.4375H24.625L21.75 40.3125H18.875V39.5938L21.0313 37.4375C19.6177 37.4375 18.4255 36.9526 17.4548 35.9828C16.484 35.0129 15.999 33.8208 16 32.4063ZM18.875 24.5H26.0625V20.1875H18.875V24.5ZM28.9375 24.5H36.125V20.1875H28.9375V24.5ZM22.4688 33.125C23.0917 33.125 23.6068 32.9214 24.0141 32.5141C24.4214 32.1068 24.625 31.5917 24.625 30.9688C24.625 30.3458 24.4214 29.8307 24.0141 29.4234C23.6068 29.0162 23.0917 28.8125 22.4688 28.8125C21.8458 28.8125 21.3307 29.0162 20.9234 29.4234C20.5161 29.8307 20.3125 30.3458 20.3125 30.9688C20.3125 31.5917 20.5161 32.1068 20.9234 32.5141C21.3307 32.9214 21.8458 33.125 22.4688 33.125ZM32.5312 33.125C33.1542 33.125 33.6693 32.9214 34.0766 32.5141C34.4839 32.1068 34.6875 31.5917 34.6875 30.9688C34.6875 30.3458 34.4839 29.8307 34.0766 29.4234C33.6693 29.0162 33.1542 28.8125 32.5312 28.8125C31.9083 28.8125 31.3932 29.0162 30.9859 29.4234C30.5786 29.8307 30.375 30.3458 30.375 30.9688C30.375 31.5917 30.5786 32.1068 30.9859 32.5141C31.3932 32.9214 31.9083 33.125 32.5312 33.125Z" fill="url(#paint0_linear_307_668)"/>
<path d="M17.5556 12.546L18.3375 13.0936C18.4084 13.1432 18.4613 13.2144 18.4884 13.2965C18.5577 13.5069 18.4434 13.7336 18.233 13.8029L15.5166 14.6984C15.4796 14.7105 15.441 14.7173 15.4021 14.7184C15.1807 14.7245 14.9963 14.55 14.9901 14.3286L14.9112 11.4758C14.9089 11.3898 14.9342 11.3052 14.9836 11.2347C15.1107 11.0533 15.3607 11.0092 15.5422 11.1362L16.189 11.5891C17.341 10.579 18.8317 10 20.4167 10C23.9605 10 26.8333 12.8728 26.8333 16.4167C26.8333 19.9605 23.9605 22.8333 20.4167 22.8333C16.8728 22.8333 14 19.9605 14 16.4167H15.6042C15.6042 19.0745 17.7588 21.2292 20.4167 21.2292C23.0745 21.2292 25.2292 19.0745 25.2292 16.4167C25.2292 13.7588 23.0745 11.6042 20.4167 11.6042C19.3648 11.6042 18.3695 11.9433 17.5556 12.546Z" fill="url(#paint1_linear_307_668)"/>
<defs>
<linearGradient id="paint0_linear_307_668" x1="16" y1="27.375" x2="39" y2="27.375" gradientUnits="userSpaceOnUse">
<stop stop-color="#FFC500"/>
<stop offset="1" stop-color="#D0A100"/>
</linearGradient>
<linearGradient id="paint1_linear_307_668" x1="20.4167" y1="10" x2="20.4167" y2="22.8333" gradientUnits="userSpaceOnUse">
<stop/>
<stop offset="1" stop-color="#3A3333"/>
</linearGradient>
</defs>
</svg>
