<svg width="18" height="19" viewBox="0 0 18 19" fill="none" xmlns="http://www.w3.org/2000/svg">
<path d="M13.371 15.827L16.211 13.031L15.585 12.404L13.371 14.587L12.415 13.612L11.788 14.244L13.371 15.827ZM2.76997 4.73H13.232V3.73H2.76897L2.76997 4.73ZM14 18.115C12.886 18.115 11.9406 17.727 11.164 16.951C10.3873 16.175 9.9993 15.2297 9.99997 14.115C9.99997 13.0017 10.388 12.0567 11.164 11.28C11.94 10.5033 12.8853 10.115 14 10.115C15.114 10.115 16.0593 10.5033 16.836 11.28C17.6126 12.0567 18.0006 13.0017 18 14.115C18 15.2297 17.612 16.175 16.836 16.951C16.0586 17.727 15.1133 18.115 14 18.115ZM-3.05176e-05 16.77V1.615C-3.05176e-05 1.16833 0.157303 0.787333 0.47197 0.472C0.786636 0.157333 1.16764 0 1.61497 0H14.385C14.8316 0 15.2126 0.157333 15.528 0.472C15.8426 0.786667 16 1.16767 16 1.615V7.56C15.4053 7.36467 14.796 7.26433 14.172 7.259C13.5486 7.253 12.9336 7.33333 12.327 7.5H2.76897V8.5H10.081C9.57964 8.84733 9.13764 9.255 8.75497 9.723C8.3723 10.191 8.0573 10.7063 7.80997 11.269H2.76997V12.269H7.47897C7.40697 12.5383 7.35097 12.81 7.31097 13.084C7.27097 13.358 7.25064 13.644 7.24997 13.942C7.24997 14.3987 7.29764 14.8517 7.39297 15.301C7.48897 15.7503 7.6323 16.1833 7.82297 16.6L7.78797 16.635L6.65397 15.808L5.30797 16.769L3.96197 15.808L2.61497 16.769L1.26897 15.808L-3.05176e-05 16.77Z" fill="white"/>
</svg>
