<svg width="54" height="53" viewBox="0 0 54 53" fill="none" xmlns="http://www.w3.org/2000/svg">
<circle opacity="0.1" cx="27.4502" cy="26.5" r="26.5" fill="#F7B731"/>
<path d="M16 32.4063V18.75C16 17.4802 16.3297 16.4677 16.989 15.7126C17.6483 14.9574 18.5166 14.3824 19.5938 13.9876C20.6719 13.5927 21.9 13.3292 23.2781 13.1969C24.6561 13.0647 26.0635 12.9991 27.5 13C29.0813 13 30.5729 13.0661 31.9749 13.1984C33.377 13.3306 34.5989 13.5942 35.6406 13.989C36.6823 14.3838 37.5026 14.9588 38.1016 15.714C38.7005 16.4692 39 17.4812 39 18.75V32.4063C39 33.8198 38.5151 35.012 37.5453 35.9828C36.5754 36.9536 35.3832 37.4385 33.9687 37.4375L36.125 39.5938V40.3125H33.25L30.375 37.4375H24.625L21.75 40.3125H18.875V39.5938L21.0313 37.4375C19.6177 37.4375 18.4255 36.9526 17.4548 35.9828C16.484 35.0129 15.999 33.8208 16 32.4063ZM18.875 24.5H26.0625V20.1875H18.875V24.5ZM28.9375 24.5H36.125V20.1875H28.9375V24.5ZM22.4688 33.125C23.0917 33.125 23.6068 32.9214 24.0141 32.5141C24.4214 32.1068 24.625 31.5917 24.625 30.9688C24.625 30.3458 24.4214 29.8307 24.0141 29.4234C23.6068 29.0162 23.0917 28.8125 22.4688 28.8125C21.8458 28.8125 21.3307 29.0162 20.9234 29.4234C20.5161 29.8307 20.3125 30.3458 20.3125 30.9688C20.3125 31.5917 20.5161 32.1068 20.9234 32.5141C21.3307 32.9214 21.8458 33.125 22.4688 33.125ZM32.5312 33.125C33.1542 33.125 33.6693 32.9214 34.0766 32.5141C34.4839 32.1068 34.6875 31.5917 34.6875 30.9688C34.6875 30.3458 34.4839 29.8307 34.0766 29.4234C33.6693 29.0162 33.1542 28.8125 32.5312 28.8125C31.9083 28.8125 31.3932 29.0162 30.9859 29.4234C30.5786 29.8307 30.375 30.3458 30.375 30.9688C30.375 31.5917 30.5786 32.1068 30.9859 32.5141C31.3932 32.9214 31.9083 33.125 32.5312 33.125Z" fill="url(#paint0_linear_307_676)"/>
<g clip-path="url(#clip0_307_676)">
<path d="M19.0002 9C16.057 9 13.645 11.4048 13.645 14.3399C13.645 15.4771 14.0083 16.5341 14.623 17.4028L18.3466 23.8401C18.8681 24.5214 19.2148 24.392 19.6484 23.8041L23.7556 16.8147C23.8384 16.6646 23.9036 16.5047 23.9603 16.3415C24.2209 15.7063 24.3549 15.0264 24.3548 14.3399C24.355 11.4048 21.9437 9 19.0002 9ZM19.0002 11.502C20.5853 11.502 21.8456 12.7595 21.8456 14.3399C21.8456 15.9203 20.5853 17.1772 19.0002 17.1772C17.4153 17.1772 16.1544 15.9205 16.1544 14.3399C16.1544 12.7595 17.4153 11.5022 19.0002 11.5022" fill="black"/>
<path d="M22.4043 17.8032L22.3957 17.8259C22.3984 17.8191 22.4006 17.812 22.4033 17.8052L22.4043 17.8032ZM21.4926 22.2035L21.2437 22.5113C21.5803 22.552 21.9061 22.5997 22.2112 22.6575L21.225 22.9496L22.5413 23.2997L23.5225 22.9903C24.1251 23.1924 24.9596 23.4396 25.2361 23.7205H23.2687L23.4642 24.2922H25.5057C25.4996 24.6144 24.9236 24.8761 24.3735 25.0882L22.9784 24.7865L21.6638 25.2576L23.0678 25.578C22.2481 25.8012 20.8718 25.9369 19.7324 25.9993L19.6845 25.3441H18.3155L18.2674 25.9993C17.128 25.9369 15.7519 25.8013 14.932 25.5781L16.3362 25.2576L15.0216 24.7865L13.6263 25.0882C13.0841 24.9235 12.5004 24.6144 12.4943 24.2922H14.536L14.7315 23.7205H12.7641C13.0406 23.4396 13.875 23.1924 14.4777 22.9903L15.4589 23.2997L16.7752 22.9496L15.789 22.6575C16.1075 22.5986 16.4278 22.5501 16.7495 22.5122L16.5041 22.2039C13.8428 22.4805 11.631 23.0697 11.051 24.0001C10.126 25.4829 13.5384 26.9746 18.8866 26.9978C18.9662 27.0018 19.0446 26.9989 19.1188 26.9978C24.4639 26.9733 27.8733 25.4822 26.949 24.0001C26.3687 23.0693 24.1556 22.48 21.4926 22.2035Z" fill="black"/>
</g>
<defs>
<linearGradient id="paint0_linear_307_676" x1="16" y1="27.375" x2="39" y2="27.375" gradientUnits="userSpaceOnUse">
<stop stop-color="#FFC500"/>
<stop offset="1" stop-color="#D0A100"/>
</linearGradient>
<clipPath id="clip0_307_676">
<rect width="18" height="18" fill="white" transform="translate(10 9)"/>
</clipPath>
</defs>
</svg>
