<svg width="30" height="30" viewBox="0 0 30 30" fill="none" xmlns="http://www.w3.org/2000/svg">
<rect x="0.5" y="0.5" width="29" height="29" rx="14.5" fill="#F0BE15" stroke="#F0BE15"/>
<path d="M12.596 16.7432H11.2751C10.9119 16.7432 10.6147 16.446 10.6147 16.0827C10.6147 15.7195 10.9119 15.4223 11.2751 15.4223H12.596C12.9593 15.4223 13.2564 15.7195 13.2564 16.0827C13.2564 16.4526 12.9659 16.7432 12.596 16.7432ZM15.8982 16.7432H14.5773C14.2141 16.7432 13.9169 16.446 13.9169 16.0827C13.9169 15.7195 14.2141 15.4223 14.5773 15.4223H15.8982C16.2615 15.4223 16.5587 15.7195 16.5587 16.0827C16.5587 16.4526 16.2681 16.7432 15.8982 16.7432ZM16.2284 9.47831H10.9449C10.76 9.47831 10.6147 9.33302 10.6147 9.14809C10.6147 8.96317 10.76 8.81787 10.9449 8.81787H16.2284C16.4134 8.81787 16.5587 8.96317 16.5587 9.14809C16.5587 9.33302 16.4134 9.47831 16.2284 9.47831Z" fill="white"/>
<path d="M9.29381 6.83671C9.29381 6.47281 9.5844 6.17627 9.94104 6.17627H17.2323C17.589 6.17627 17.8795 6.47281 17.8795 6.83671H17.9198C18.6265 6.83671 19.2004 7.39809 19.2004 8.09815V16.7367C19.2004 17.9103 18.431 18.9017 17.3618 19.251L17.9218 20.0871C18.4317 20.848 18.964 21.6418 19.0657 21.8056C19.2889 22.1616 19.2757 22.4225 19.1106 22.6384C18.9455 22.8544 18.6906 22.8676 18.4805 22.8676H8.68488C8.57261 22.8683 8.18889 22.8716 8.01255 22.5684C7.85008 22.2877 7.99934 22.042 8.11954 21.8433L8.16578 21.7673C8.20804 21.6927 8.54751 21.2099 8.9484 20.6406C9.26673 20.1882 9.62337 19.681 9.90141 19.2788C9.88751 19.2747 9.87364 19.2705 9.85981 19.2662C8.76612 18.932 7.97293 17.9282 7.97293 16.7367V8.09815C7.97293 7.39809 8.54091 6.83671 9.24692 6.83671H9.29381ZM9.29381 14.762V16.4461C9.29381 17.3377 10.0203 18.0642 10.9119 18.0642H16.2615C17.1531 18.0642 17.8795 17.3377 17.8795 16.4461V14.762H9.29381ZM9.29381 14.1016H17.8795V10.7994H9.29381V14.1016ZM17.8795 9.77567C17.8795 8.88408 17.1531 8.15759 16.2615 8.15759H10.9119C10.0203 8.15759 9.29381 8.88408 9.29381 9.77567V10.1297H17.8795V9.77567ZM10.1583 20.7033H17.0064C16.9941 20.6824 16.9824 20.661 16.9714 20.6393C16.9244 20.5462 16.8721 20.4557 16.8149 20.3685C16.6941 20.1908 16.4992 20.0383 16.2383 20.0383H10.9443C10.6451 20.0383 10.4106 20.2866 10.3598 20.3685C10.3188 20.4352 10.1986 20.6353 10.1583 20.7033ZM9.29777 22.0176H17.8888C17.8426 21.9463 17.6457 21.6497 17.5949 21.5738C17.5024 21.4351 17.2957 21.3572 17.1557 21.3572H10.1894C9.89019 21.3572 9.5527 21.6365 9.4827 21.7508C9.42459 21.8423 9.3629 21.9309 9.29777 22.0176Z" fill="white"/>
<path d="M20.5213 8.80495C20.5213 8.44831 20.8119 8.15771 21.1685 8.15771H23.1763C23.5329 8.15771 23.8235 8.44831 23.8235 8.80495V12.1336C23.8235 12.4902 23.5329 12.7808 23.1763 12.7808H22.5026V17.4065L23.8235 17.4039V23.3479L19.4778 19.022C18.8834 18.4276 19.3061 17.4105 20.1448 17.4105L21.8422 17.4072V12.7808H21.1685C20.8119 12.7808 20.5213 12.4902 20.5213 12.1336V8.80495ZM23.163 10.139H21.1817V12.1204H23.163V10.139ZM20.1448 18.0709C20.089 18.0713 20.0345 18.0882 19.9882 18.1194C19.9419 18.1506 19.9058 18.1947 19.8845 18.2463C19.8631 18.2979 19.8574 18.3546 19.8682 18.4094C19.8789 18.4642 19.9055 18.5146 19.9447 18.5544L23.163 21.7582V18.0657L20.1448 18.0709Z" fill="white"/>
</svg>
