<svg width="46" height="41" viewBox="0 0 46 41" fill="none" xmlns="http://www.w3.org/2000/svg">
<path d="M2.18146 33.0486L28.1307 36.6689L32.8004 11.4689L9.24107 8.28662L2.18146 33.0486Z" fill="#FFF200"/>
<path d="M2.18146 33.0483L4.12943 36.0737L30.4505 40.2912L28.129 36.6687L2.18146 33.0483Z" fill="#E8D807"/>
<path d="M7.87935 7.09375C7.87935 7.09375 2.65888 31.3586 1.55529 32.075C0.4506 32.7925 27.7506 36.0737 27.7506 36.0737C27.7506 36.0737 32.7463 12.0233 32.8015 11.4709C32.8568 10.9186 7.87935 7.09594 7.87935 7.09594" fill="#EDDC0A"/>
<path d="M8.48094 7.88037C8.48094 7.88037 2.32149 29.7718 1.21899 30.4882C0.1143 31.2057 27.8912 35.2859 27.8912 35.2859C27.8912 35.2859 32.4997 12.0984 32.5538 11.5515C32.6096 10.9992 8.48039 7.88037 8.48039 7.88037" fill="#AD9A28"/>
<path d="M32.801 11.4688L34.9179 13.5458L30.4527 40.2912L28.1312 36.6688L32.801 11.4688Z" fill="#DBBF33"/>
<path d="M7.87939 7.09375C7.87939 7.09375 1.13532 27.5884 0.0328241 28.3043C-1.07186 29.0218 26.1166 35.5143 27.4969 34.1712C28.8756 32.827 32.7474 12.0238 32.8027 11.4715C32.8579 10.9191 7.88048 7.09648 7.88048 7.09648" fill="#E8D807"/>
<path d="M7.87939 7.09375C7.87939 7.09375 1.95181 25.1625 0.848218 25.8789C-0.256469 26.5964 21.5627 35.225 23.8552 33.1031C24.8478 32.1866 27.1584 28.1648 28.7077 24.3903C31.3343 17.993 32.7677 11.8122 32.8005 11.4715C32.8557 10.9191 7.8783 7.09648 7.8783 7.09648" fill="#FFF200"/>
<path d="M8.66139 15.3624C8.73959 15.0245 9.20772 13.9892 9.69991 14.208C9.94655 14.3196 9.8503 14.8013 9.86725 15.0163C9.88147 15.2367 9.95584 15.4182 10.1024 15.579C10.8319 16.3747 11.9711 14.8785 12.3741 14.4207C12.2544 14.4065 12.1368 14.3896 12.0198 14.3753C12.1745 14.5957 12.2401 14.8905 12.4507 15.0682C12.7061 15.2782 13.0173 15.0972 13.2398 14.9342C13.1348 14.9074 13.0315 14.8785 12.9287 14.8517C13.0484 15.1196 13.1928 15.3668 13.5144 15.3794C13.6194 15.3832 13.7326 15.334 13.8299 15.3028C14.0547 15.2328 14.2816 15.276 14.4998 15.3362C14.8356 15.427 15.1736 15.3816 15.4191 15.13C15.5881 14.9545 15.6565 15.1071 15.8397 15.1732C16.1137 15.2722 16.3444 15.0414 16.6518 15.194C16.9094 15.3236 17.1385 14.9342 16.8804 14.8046C16.7076 14.7182 16.567 14.6728 16.3756 14.6646C16.1902 14.6586 15.9983 14.7942 15.8517 14.6378C15.6805 14.4503 15.3983 14.4978 15.2332 14.669C15.0374 14.8692 14.922 14.9681 14.6207 14.8998C14.4517 14.8626 14.2969 14.8254 14.1219 14.8172C13.9833 14.8114 13.8447 14.8287 13.7118 14.8686C13.4542 14.937 13.4312 14.8768 13.318 14.6253C13.2726 14.5203 13.1015 14.4771 13.009 14.5449C12.8193 14.6849 12.7515 14.786 12.6355 14.5613C12.5612 14.4191 12.5015 14.2785 12.4086 14.1489C12.3304 14.0374 12.157 13.9838 12.0542 14.1013C11.6856 14.5241 11.3329 14.996 10.8319 15.2624C10.1516 15.6249 10.378 14.3387 10.156 14.0171C9.45053 13.0131 8.37264 14.6192 8.22444 15.2416C8.16045 15.5254 8.59358 15.6452 8.66139 15.3624ZM17.5164 15.3679C17.5558 15.3865 17.5908 15.4111 17.6301 15.4297C17.6971 15.4647 17.7712 15.4838 17.8467 15.4855C17.9681 15.4899 18.0709 15.3805 18.0709 15.2585C18.0701 15.1993 18.0462 15.1427 18.0043 15.1007C17.9625 15.0588 17.906 15.0348 17.8467 15.0338C17.7926 15.0316 17.8959 15.0458 17.8505 15.0354C17.8423 15.0316 17.8347 15.0316 17.8281 15.0272C17.8604 15.0436 17.8669 15.0442 17.8467 15.0338C17.8117 15.0174 17.7805 14.996 17.7433 14.9774C17.6318 14.9217 17.4983 14.9485 17.4322 15.0578C17.3753 15.1596 17.407 15.3099 17.5164 15.3679ZM19.0444 15.6474C19.7394 15.7524 20.2092 15.3198 20.5581 14.7631H20.1682C20.4121 15.0868 20.3968 15.7031 20.942 15.6621C21.1679 15.6457 21.3494 15.4767 21.5004 15.3203C21.6546 15.1552 21.898 14.6832 22.0844 15.0354C22.1719 15.1946 22.2687 15.427 22.4711 15.4746C22.8605 15.5675 23.1076 15.3471 23.4833 15.3099C24.4273 15.2131 25.3569 15.3428 26.2987 15.3531C26.5934 15.3553 26.5934 14.9036 26.2987 14.9014C25.5095 14.8932 24.7226 14.7904 23.9301 14.8172C23.5862 14.8276 23.2646 14.873 22.949 15.0004C22.5449 15.165 22.5039 14.7674 22.2917 14.5569C21.998 14.2665 21.6382 14.4847 21.4173 14.7259C21.3494 14.7981 20.9617 15.3444 20.8376 15.1568C20.7123 14.9649 20.6976 14.7199 20.5576 14.5361C20.4558 14.4021 20.2666 14.3813 20.1676 14.5361C19.9451 14.8888 19.6333 15.2842 19.1658 15.2121C18.8819 15.1694 18.7583 15.6042 19.0444 15.6474ZM7.21655 18.1023C7.55452 17.7293 8.22225 16.9254 8.80795 17.1912C9.3685 17.4466 9.3253 18.3123 9.63866 18.7656C9.90881 19.1572 10.4672 19.137 10.8221 18.8794C11.2738 18.5496 11.4696 17.9497 11.76 17.492C11.6189 17.4734 11.4838 17.457 11.346 17.4384C11.428 17.731 11.6014 17.8775 11.8398 18.0487C12.0777 18.2215 12.3025 17.8305 12.0695 17.6615C11.9295 17.5603 11.8327 17.5007 11.783 17.3192C11.7294 17.1234 11.474 17.1026 11.369 17.2634C11.095 17.6981 10.8516 18.5622 10.2566 18.618C9.95694 18.647 9.87819 18.2467 9.8142 18.0306C9.73989 17.7646 9.63396 17.5085 9.49866 17.2678C8.78936 16.0389 7.52881 17.0884 6.89717 17.7829C6.70084 17.9951 7.01858 18.3167 7.21655 18.1023ZM12.6328 18.1624C12.8483 18.2182 12.9987 18.1438 13.201 18.0777C13.428 18.0033 13.7752 18.2592 13.9655 18.356C14.2253 18.4878 14.4539 18.0985 14.1925 17.9667C13.9595 17.8469 13.7309 17.7069 13.4733 17.6511C13.3636 17.6272 13.2507 17.6216 13.1392 17.6347C13.0134 17.6533 12.8794 17.7583 12.7537 17.7255C12.4687 17.6533 12.3517 18.0881 12.6328 18.1624ZM15.2212 18.3353C15.5821 18.2571 15.9726 18.49 16.3258 18.56C16.6857 18.63 17.0051 18.5228 17.232 18.2341C17.4092 18.0071 17.092 17.6872 16.9126 17.9147C16.6594 18.2385 16.3395 18.1105 16.0037 18.0033C15.7051 17.9087 15.4164 17.8327 15.1069 17.8983C14.8198 17.9601 14.9412 18.3954 15.2239 18.3353M19.973 19.2179C20.0982 18.6366 20.1469 18.041 20.3618 17.4843C20.2256 17.5029 20.0894 17.5193 19.9516 17.5379C20.3552 18.1504 20.8529 18.548 21.6191 18.4736C21.9056 18.4446 21.9089 17.9935 21.6191 18.0219C21.0153 18.0815 20.6648 17.7971 20.341 17.3088C20.2278 17.1376 20.0008 17.1808 19.9287 17.3624C19.7121 17.9207 19.6651 18.5185 19.5393 19.096C19.4775 19.3809 19.9106 19.5028 19.973 19.2179ZM22.7894 18.7334C23.5719 18.7602 24.3015 18.5026 25.0786 18.6962C25.7354 18.857 26.2844 19.0265 26.9341 18.746C27.1999 18.6306 26.973 18.2428 26.7094 18.3566C26.0274 18.6492 25.3925 18.2286 24.7144 18.1646C24.0669 18.1067 23.4407 18.3046 22.7899 18.2822C22.5001 18.2713 22.5017 18.723 22.7894 18.7334ZM8.31084 21.7921C7.90288 21.8128 7.06397 21.7713 7.16459 21.1533C7.24334 20.6792 7.74592 20.432 8.18069 20.4402C8.64225 20.4462 9.59381 20.9307 9.30616 21.5104C9.23616 21.6504 9.05241 21.8052 8.88561 21.7806C8.62202 21.7412 8.69202 21.2796 8.7128 21.1085C8.63624 21.1828 8.56022 21.2588 8.48584 21.3354C9.08194 21.3846 9.46694 21.9085 10.1144 21.797C10.3928 21.7478 10.6564 21.6176 10.9391 21.5908C10.8565 21.4606 10.8363 21.4442 10.8751 21.5432C10.8915 21.5924 10.9058 21.6422 10.9265 21.6898C10.9583 21.7702 11.0004 21.867 11.0687 21.9271C11.4029 22.2345 11.8683 22.0075 12.2522 21.9129C12.4195 21.8697 12.6607 22.1251 12.8477 22.1503C13.0911 22.1831 13.2579 21.9753 13.4865 21.9337C13.7719 21.8823 13.6516 21.447 13.3673 21.4989C13.1403 21.5383 12.9609 21.7713 12.7444 21.6351C12.5819 21.5339 12.4764 21.4349 12.2768 21.4535C12.0498 21.4743 11.8273 21.5607 11.609 21.6143C11.3455 21.6783 11.3542 21.5279 11.2749 21.3234C11.1223 20.94 10.5 21.2326 10.2358 21.3113C9.57248 21.5093 9.11694 20.9384 8.48584 20.8826C8.35405 20.8722 8.27475 20.9963 8.26108 21.1096C8.21405 21.4929 8.24467 21.961 8.6242 22.165C8.91678 22.3236 9.25256 22.188 9.48772 21.996C10.3348 21.3179 9.40131 20.38 8.72319 20.1017C7.95866 19.7883 7.04319 20.1471 6.75663 20.9302C6.39788 21.9238 7.56873 22.2826 8.31084 22.2454C8.60342 22.2296 8.60342 21.7778 8.31084 21.7921ZM16.3319 21.4437C15.9649 21.4667 15.6515 21.6088 15.5586 21.99C15.4804 22.3078 15.68 22.6517 15.9458 22.8103C16.6507 23.2265 17.6815 22.9296 18.4543 23.0225C18.7452 23.0553 18.7408 22.6042 18.4543 22.5686C17.9829 22.5128 17.4962 22.5604 17.0198 22.5522C16.7661 22.5456 16.5129 22.5276 16.2673 22.4571C15.8905 22.3521 15.9337 21.9195 16.3313 21.8943C16.6228 21.8768 16.6228 21.4251 16.3319 21.4437ZM19.1231 22.5374C19.7744 22.4138 20.3623 23.0696 20.9661 23.2549C21.7268 23.4923 22.5471 23.2363 23.3094 23.1521C23.596 23.1231 23.6004 22.672 23.3094 22.7031C22.4317 22.7978 21.5512 23.0739 20.7058 22.6785C20.0982 22.3942 19.7225 21.9654 19.0012 22.1032C18.719 22.1585 18.8382 22.5932 19.1231 22.5374ZM25.375 23.5382C25.4904 23.5776 25.603 23.629 25.7233 23.6678C25.8371 23.7072 25.9667 23.6224 25.999 23.5114C26.0329 23.3878 25.9558 23.2719 25.8409 23.2331C25.7233 23.1915 25.6123 23.1423 25.4926 23.1029C25.375 23.0619 25.2476 23.1483 25.2164 23.2599C25.1814 23.3862 25.258 23.4994 25.375 23.5382ZM17.8883 27.0306C18.2366 26.4367 18.0376 25.134 17.1298 25.2264C16.6726 25.2718 16.2208 25.7252 16.1979 26.1829C16.1711 26.7271 16.8525 27.0196 17.2818 27.1126C17.5667 27.1744 17.6837 26.7369 17.3994 26.6756C17.1593 26.6259 16.672 26.4963 16.649 26.1829C16.6305 25.9603 17.01 25.6366 17.2348 25.6738C17.6903 25.7438 17.6695 26.5149 17.4983 26.8031C17.3485 27.0552 17.7395 27.2816 17.8883 27.0306ZM20.0364 25.6366C19.5043 25.5584 18.8491 25.6021 18.5565 26.1293C18.2738 26.6406 18.6862 27.2285 19.0903 27.5293C19.5234 27.8509 20.0621 27.8777 20.3995 27.4178C20.7337 26.9578 20.5133 26.3185 20.1933 25.9275C20.0101 25.7028 19.6924 26.0243 19.874 26.2469C20.0736 26.4963 20.1933 26.8468 20.0369 27.146C19.8696 27.4653 19.5048 27.2942 19.2987 27.1208C19.0821 26.9398 18.8081 26.6095 18.9727 26.3125C19.1379 26.0139 19.6344 26.0298 19.9172 26.0697C20.1994 26.1107 20.323 25.676 20.0364 25.6366ZM16.2039 27.4812C16.5648 29.0682 19.0695 30.4119 20.043 28.6127C20.1813 28.3546 19.7936 28.1281 19.6536 28.3835C18.8699 29.8289 16.9083 28.5585 16.6398 27.3614C16.5741 27.0792 16.1394 27.199 16.2028 27.4812M16.4062 24.5756V24.924C16.4062 25.046 16.509 25.1482 16.6332 25.1482C16.6927 25.1475 16.7496 25.1238 16.7919 25.0819C16.8343 25.0401 16.8587 24.9835 16.8601 24.924V24.5756C16.8589 24.5161 16.8345 24.4593 16.7921 24.4174C16.7498 24.3754 16.6928 24.3516 16.6332 24.3509C16.5735 24.3513 16.5164 24.375 16.4739 24.417C16.4315 24.459 16.4072 24.516 16.4062 24.5756ZM17.1894 24.621C17.1872 24.6828 17.2014 24.5762 17.1872 24.6358C17.1836 24.6549 17.1781 24.6736 17.1708 24.6916C17.1872 24.644 17.1626 24.7058 17.1626 24.7118C17.1522 24.7304 17.144 24.749 17.1336 24.7676C17.0778 24.8792 17.1024 25.011 17.214 25.0771C17.3151 25.1367 17.4661 25.1061 17.523 24.9967C17.5826 24.8748 17.634 24.7578 17.6405 24.621C17.6377 24.5631 17.6127 24.5085 17.5707 24.4686C17.5287 24.4286 17.4729 24.4063 17.4149 24.4063C17.357 24.4063 17.3012 24.4286 17.2592 24.4686C17.2172 24.5085 17.1922 24.5631 17.1894 24.621ZM18.3848 24.7687L18.3537 24.7829C18.2825 24.8008 18.2176 24.8379 18.1661 24.8901C18.1443 24.9108 18.1269 24.9356 18.1149 24.9631C18.1028 24.9906 18.0964 25.0202 18.096 25.0503C18.0956 25.0803 18.1011 25.1101 18.1124 25.1379C18.1237 25.1658 18.1404 25.1911 18.1615 25.2124C18.1827 25.2336 18.2079 25.2505 18.2357 25.2619C18.2635 25.2733 18.2933 25.279 18.3233 25.2787C18.3533 25.2785 18.383 25.2722 18.4105 25.2603C18.4381 25.2484 18.463 25.2311 18.4838 25.2095C18.5128 25.1827 18.4319 25.2428 18.4773 25.216C18.5248 25.1892 18.433 25.2324 18.4707 25.2182C18.5183 25.1996 18.5648 25.181 18.6134 25.1586C18.7223 25.1045 18.7512 24.9503 18.6933 24.8491C18.6282 24.7381 18.4964 24.7156 18.3848 24.7687ZM19.2172 25.1679C19.2002 25.1225 19.2396 25.2177 19.2172 25.1679C19.2232 25.1821 19.2254 25.1969 19.2314 25.2111C19.2396 25.2505 19.2248 25.1433 19.2259 25.1969V25.2281C19.2259 25.288 19.2497 25.3456 19.2922 25.388C19.3346 25.4304 19.3921 25.4542 19.4521 25.4542C19.512 25.4542 19.5695 25.4304 19.612 25.388C19.6544 25.3456 19.6782 25.288 19.6782 25.2281C19.6782 25.1231 19.6492 25.0323 19.606 24.9399C19.5502 24.8305 19.396 24.7993 19.2948 24.8595C19.1827 24.9251 19.1614 25.0569 19.2172 25.1679ZM20.0298 25.1515C19.9866 25.1892 20.0692 25.1274 20.0298 25.1515C20.0052 25.1657 19.9828 25.1849 19.9576 25.2035C19.9002 25.251 19.8833 25.3287 19.8778 25.3987C19.8658 25.5206 19.9866 25.6235 20.102 25.6235C20.2344 25.6235 20.3169 25.5206 20.329 25.3987C20.3286 25.428 20.3212 25.4568 20.3073 25.4826C20.2934 25.5084 20.2734 25.5305 20.2491 25.5469C20.2551 25.5409 20.2633 25.5387 20.2694 25.5327C20.2985 25.5153 20.3254 25.4945 20.3498 25.4709C20.4405 25.3888 20.4318 25.2357 20.3498 25.1515C20.3066 25.1104 20.2494 25.0875 20.1898 25.0875C20.1302 25.0875 20.073 25.1104 20.0298 25.1515ZM21.1121 25.3265C21.1389 25.3085 21.1411 25.3063 21.1241 25.3205C21.1119 25.3257 21.1002 25.3319 21.0891 25.3391C21.0505 25.358 21.0152 25.3831 20.9847 25.4135C20.8939 25.4977 20.8999 25.6486 20.9847 25.7328C21.0722 25.8236 21.2111 25.8171 21.3041 25.7328C21.2773 25.7514 21.2729 25.7553 21.292 25.741C21.3033 25.7333 21.3156 25.7272 21.3287 25.723C21.3658 25.7022 21.4008 25.6754 21.4337 25.6464C21.5223 25.5638 21.5157 25.4113 21.4337 25.3265C21.3902 25.2854 21.3327 25.2625 21.2729 25.2625C21.2131 25.2625 21.1556 25.2854 21.1121 25.3265Z" fill="#BE1E2D"/>
<path d="M30.9525 25C28.4133 25 26.2004 24.1708 24.3137 22.5125C22.4271 20.8558 21.335 18.7683 21.0375 16.25H22.3012C22.6412 18.4 23.6208 20.1875 25.24 21.6125C26.8608 23.0375 28.765 23.75 30.9525 23.75C33.39 23.75 35.4575 22.9012 37.155 21.2037C38.8525 19.5062 39.7016 17.4383 39.7025 15C39.7025 12.5625 38.8533 10.4946 37.155 8.79625C35.4566 7.09792 33.3891 6.24917 30.9525 6.25C29.6591 6.25 28.4433 6.52333 27.305 7.07C26.1675 7.61667 25.1633 8.36917 24.2925 9.3275H27.3937V10.5775H22.2025V5.385H23.4525V8.37C24.4191 7.30917 25.5516 6.4825 26.85 5.89C28.1483 5.29667 29.5158 5 30.9525 5C32.3383 5 33.6375 5.26083 34.85 5.7825C36.0625 6.30417 37.1216 7.01792 38.0275 7.92375C38.9333 8.82958 39.6475 9.88917 40.17 11.1025C40.6916 12.315 40.9525 13.6142 40.9525 15C40.9525 16.3858 40.6916 17.685 40.17 18.8975C39.6483 20.11 38.9341 21.1696 38.0275 22.0762C37.1216 22.9821 36.0625 23.6958 34.85 24.2175C33.6375 24.7392 32.3383 25 30.9525 25ZM34.9562 19.8175L30.3987 15.26V8.75H31.6487V14.74L35.8412 18.9325L34.9562 19.8175Z" fill="black"/>
</svg>
