<svg width="53" height="53" viewBox="0 0 53 53" fill="none" xmlns="http://www.w3.org/2000/svg">
<circle opacity="0.1" cx="26.5" cy="26.5" r="26.5" fill="#F7B731"/>
<g clip-path="url(#clip0_292_452)">
<path d="M15 23.1066V38.1378C15 38.6291 15.4961 38.9651 15.9523 38.7828L21.9444 36.0553V19.3887L15.8733 21.8171C15.6155 21.9201 15.3946 22.0981 15.2389 22.3279C15.0833 22.5578 15.0001 22.829 15 23.1066ZM23.3333 36.0553L31.6667 38.8331V22.1664L23.3333 19.3887V36.0553ZM39.0477 19.439L33.0556 22.1664V38.8331L39.1267 36.4047C39.3845 36.3017 39.6055 36.1238 39.7611 35.8939C39.9168 35.6641 40 35.3928 40 35.1152V20.084C40 19.5927 39.5039 19.2567 39.0477 19.439Z" fill="url(#paint0_linear_292_452)"/>
<path d="M17.4999 11C13.916 11 10.9999 13.916 10.9999 17.4959C10.9764 22.7324 17.2529 27.0743 17.4999 27.2498C17.4999 27.2498 24.0234 22.7324 23.9998 17.4999C23.9998 13.916 21.0838 11 17.4999 11ZM17.4999 20.7499C15.7043 20.7499 14.2499 19.2955 14.2499 17.4999C14.2499 15.7043 15.7043 14.25 17.4999 14.25C19.2955 14.25 20.7498 15.7043 20.7498 17.4999C20.7498 19.2955 19.2955 20.7499 17.4999 20.7499Z" fill="black"/>
</g>
<defs>
<linearGradient id="paint0_linear_292_452" x1="27.5" y1="19.3887" x2="27.5" y2="38.8331" gradientUnits="userSpaceOnUse">
<stop stop-color="#FFC500"/>
<stop offset="1" stop-color="#D0A100"/>
</linearGradient>
<clipPath id="clip0_292_452">
<rect width="31" height="31" fill="white" transform="translate(11 11)"/>
</clipPath>
</defs>
</svg>
