<svg width="40" height="40" viewBox="0 0 40 40" fill="none" xmlns="http://www.w3.org/2000/svg">
<path d="M10.25 30.5625L4.875 38.75H7.75L13 30.5625H10.25Z" fill="#94989B"/>
<path d="M10.25 30.5625H7.5L1.25 38.75H4.875L10.25 30.5625Z" fill="#E6E6E6"/>
<path d="M29.75 30.5625H27L32.25 38.75H35.125L29.75 30.5625Z" fill="#94989B"/>
<path d="M29.75 30.5625L35.125 38.75H38.75L32.5 30.5625H29.75Z" fill="#E6E6E6"/>
<path d="M27.5 31.3125H12.5L7.75 38.75H32.25L27.5 31.3125Z" fill="#3E4347"/>
<path d="M32.75 20.125H7.25V5.25C7.25 4.875 13.625 3.125 20 3.125C26.375 3.125 32.75 4.875 32.75 5.25V20.125Z" fill="#BA573F"/>
<path d="M34.25 30.3125C34.25 32.625 5.8125 32.625 5.8125 30.3125V26.5H34.25V30.3125Z" fill="#C5CDD3"/>
<path d="M30 32.9375C30 35.75 10 35.75 10 32.9375V28.25H30V32.9375Z" fill="#DAE3EA"/>
<path d="M34.25 26.5H5.75V7.75C5.75 7.25 12.875 5.0625 20 5.0625C27.125 5.0625 34.25 7.25 34.25 7.75V26.5Z" fill="#F14E3A"/>
<path d="M7.25 8.56257V14.5001L19.3125 12.5001V6.56257C19.1875 6.06257 7.1875 8.06257 7.25 8.56257ZM20.6875 6.56257V12.5001L32.6875 14.4376V8.50007C32.8125 8.06257 20.8125 6.06257 20.6875 6.56257Z" fill="#3E4347"/>
<path d="M23.6875 26.5H16.3125V14.4375C16.3125 12.875 23.625 12.875 23.625 14.4375C23.6875 16.3125 23.6875 26.5 23.6875 26.5Z" fill="#FDF516"/>
<path d="M20 19.125C21.1736 19.125 22.125 18.2016 22.125 17.0625C22.125 15.9234 21.1736 15 20 15C18.8264 15 17.875 15.9234 17.875 17.0625C17.875 18.2016 18.8264 19.125 20 19.125Z" fill="#3E4347"/>
<path d="M13.6875 5.125C14.7921 5.125 15.6875 4.25755 15.6875 3.1875C15.6875 2.11745 14.7921 1.25 13.6875 1.25C12.5829 1.25 11.6875 2.11745 11.6875 3.1875C11.6875 4.25755 12.5829 5.125 13.6875 5.125Z" fill="#F14E3A"/>
<path d="M26.3125 5.125C27.4171 5.125 28.3125 4.25755 28.3125 3.1875C28.3125 2.11745 27.4171 1.25 26.3125 1.25C25.2079 1.25 24.3125 2.11745 24.3125 3.1875C24.3125 4.25755 25.2079 5.125 26.3125 5.125Z" fill="#F14E3A"/>
<path d="M26.4375 21C23.3125 20.3125 16.6875 20.3125 13.5625 21C13.125 21.0625 12.375 21.5 12.375 22.1875V24.5625C12.375 25.1875 13.1875 25.625 13.5625 25.75C16.6875 26.4375 23.3125 26.4375 26.4375 25.75C26.875 25.6875 27.625 25.25 27.625 24.5625V22.1875C27.6875 21.5 26.875 21.0625 26.4375 21ZM26.3125 24.125C26.3125 24.5625 25.6875 24.875 25.3125 24.875C22.6875 25.3125 17.25 25.3125 14.625 24.875C14.25 24.8125 13.625 24.5 13.625 24.125V22.5625C13.625 22.125 14.25 21.8125 14.625 21.8125C17.25 21.375 22.6875 21.375 25.3125 21.8125C25.6875 21.875 26.3125 22.1875 26.3125 22.5625V24.125Z" fill="#FDF516"/>
<path d="M5.75 22.6875H34.25V24H5.75V22.6875Z" fill="#FDF516"/>
<path d="M22.0625 22.6875C22.0625 23.8125 21.125 24.75 20 24.75C18.875 24.75 17.9375 23.8125 17.9375 22.6875C17.9375 21.5625 18.875 20.625 20 20.625C21.125 20.625 22.0625 21.5625 22.0625 22.6875Z" fill="#3E4347"/>
<path d="M20 23.625C20.5178 23.625 20.9375 23.2053 20.9375 22.6875C20.9375 22.1697 20.5178 21.75 20 21.75C19.4822 21.75 19.0625 22.1697 19.0625 22.6875C19.0625 23.2053 19.4822 23.625 20 23.625Z" fill="white"/>
<path d="M14.375 26.5H25.625V30.5625H14.375V26.5Z" fill="#94989B"/>
<path d="M17.375 29.3125H18.6875V32.25H17.375V29.3125ZM21.3125 29.3125H22.625V32.25H21.3125V29.3125Z" fill="#3E4347"/>
<path d="M5.125 26.5H34.9375V28.25H5.125V26.5Z" fill="#94989B"/>
<path d="M16.3125 33.125H23.625V35.8125H16.3125V33.125Z" fill="#F14E3A"/>
<path d="M34.875 20.5623C34.8125 20.9373 34.4375 21.1873 34 21.1248L28.1875 20.1248C27.8125 20.0623 27.5 19.6873 27.5625 19.3123L27.8125 17.9998C27.875 17.6248 28.25 17.3748 28.6875 17.4373L34.5 18.4373C34.875 18.4998 35.1875 18.8748 35.125 19.2498L34.875 20.5623ZM12.3125 19.3123C12.375 19.6873 12.125 20.0623 11.6875 20.1248L5.87498 21.1248C5.49998 21.1873 5.06248 20.9373 4.99998 20.5623L4.74998 19.2498C4.68748 18.8748 4.93748 18.4998 5.37498 18.4373L11.1875 17.4373C11.5625 17.3748 12 17.6248 12.0625 17.9998L12.3125 19.3123Z" fill="#3E4347"/>
</svg>
