<svg width="90" height="51" viewBox="0 0 90 51" fill="none" xmlns="http://www.w3.org/2000/svg">
<g clip-path="url(#clip0_50_258)">
<g filter="url(#filter0_d_50_258)">
<path d="M77.01 35.7595C82.5 33.2711 82.5 31.3884 82.5 23.375C82.5 15.3616 82.5 11.3539 77.01 8.8655C71.5125 6.375 62.6775 6.375 45 6.375C27.3225 6.375 18.4837 6.375 12.9938 8.8655C7.5 11.3539 7.5 15.3616 7.5 23.375C7.5 31.3884 7.5 33.2711 12.9938 35.7595C18.48 38.25 27.3225 38.25 45 38.25C54.4125 38.25 59.25 41.9432 67.5 44.625V37.7995C71.6025 37.4531 74.6213 36.8432 77.01 35.7595Z" fill="url(#paint0_linear_50_258)"/>
</g>
<path d="M19.104 17.636V18.524H16.824V26H15.732V18.524H13.44V17.636H19.104ZM20.7722 18.356C20.5642 18.356 20.3882 18.284 20.2442 18.14C20.1002 17.996 20.0282 17.82 20.0282 17.612C20.0282 17.404 20.1002 17.228 20.2442 17.084C20.3882 16.94 20.5642 16.868 20.7722 16.868C20.9722 16.868 21.1402 16.94 21.2762 17.084C21.4202 17.228 21.4922 17.404 21.4922 17.612C21.4922 17.82 21.4202 17.996 21.2762 18.14C21.1402 18.284 20.9722 18.356 20.7722 18.356ZM21.3002 19.424V26H20.2082V19.424H21.3002ZM26.5933 26L24.0133 23.096V26H22.9213V17.12H24.0133V22.34L26.5453 19.424H28.0693L24.9733 22.7L28.0813 26H26.5933ZM34.8571 22.46C34.8571 22.668 34.8451 22.888 34.8211 23.12H29.5651C29.6051 23.768 29.8251 24.276 30.2251 24.644C30.6331 25.004 31.1251 25.184 31.7011 25.184C32.1731 25.184 32.5651 25.076 32.8771 24.86C33.1971 24.636 33.4211 24.34 33.5491 23.972H34.7251C34.5491 24.604 34.1971 25.12 33.6691 25.52C33.1411 25.912 32.4851 26.108 31.7011 26.108C31.0771 26.108 30.5171 25.968 30.0211 25.688C29.5331 25.408 29.1491 25.012 28.8691 24.5C28.5891 23.98 28.4491 23.38 28.4491 22.7C28.4491 22.02 28.5851 21.424 28.8571 20.912C29.1291 20.4 29.5091 20.008 29.9971 19.736C30.4931 19.456 31.0611 19.316 31.7011 19.316C32.3251 19.316 32.8771 19.452 33.3571 19.724C33.8371 19.996 34.2051 20.372 34.4611 20.852C34.7251 21.324 34.8571 21.86 34.8571 22.46ZM33.7291 22.232C33.7291 21.816 33.6371 21.46 33.4531 21.164C33.2691 20.86 33.0171 20.632 32.6971 20.48C32.3851 20.32 32.0371 20.24 31.6531 20.24C31.1011 20.24 30.6291 20.416 30.2371 20.768C29.8531 21.12 29.6331 21.608 29.5771 22.232H33.7291ZM37.3905 20.324V24.2C37.3905 24.52 37.4585 24.748 37.5945 24.884C37.7305 25.012 37.9665 25.076 38.3025 25.076H39.1065V26H38.1225C37.5145 26 37.0585 25.86 36.7545 25.58C36.4505 25.3 36.2985 24.84 36.2985 24.2V20.324H35.4465V19.424H36.2985V17.768H37.3905V19.424H39.1065V20.324H37.3905ZM46.8208 26L44.2408 23.096V26H43.1488V17.12H44.2408V22.34L46.7728 19.424H48.2968L45.2008 22.7L48.3088 26H46.8208ZM48.6766 22.688C48.6766 22.016 48.8126 21.428 49.0846 20.924C49.3566 20.412 49.7286 20.016 50.2006 19.736C50.6806 19.456 51.2126 19.316 51.7966 19.316C52.3726 19.316 52.8726 19.44 53.2966 19.688C53.7206 19.936 54.0366 20.248 54.2446 20.624V19.424H55.3486V26H54.2446V24.776C54.0286 25.16 53.7046 25.48 53.2726 25.736C52.8486 25.984 52.3526 26.108 51.7846 26.108C51.2006 26.108 50.6726 25.964 50.2006 25.676C49.7286 25.388 49.3566 24.984 49.0846 24.464C48.8126 23.944 48.6766 23.352 48.6766 22.688ZM54.2446 22.7C54.2446 22.204 54.1446 21.772 53.9446 21.404C53.7446 21.036 53.4726 20.756 53.1286 20.564C52.7926 20.364 52.4206 20.264 52.0126 20.264C51.6046 20.264 51.2326 20.36 50.8966 20.552C50.5606 20.744 50.2926 21.024 50.0926 21.392C49.8926 21.76 49.7926 22.192 49.7926 22.688C49.7926 23.192 49.8926 23.632 50.0926 24.008C50.2926 24.376 50.5606 24.66 50.8966 24.86C51.2326 25.052 51.6046 25.148 52.0126 25.148C52.4206 25.148 52.7926 25.052 53.1286 24.86C53.4726 24.66 53.7446 24.376 53.9446 24.008C54.1446 23.632 54.2446 23.196 54.2446 22.7ZM64.862 19.304C65.374 19.304 65.83 19.412 66.23 19.628C66.63 19.836 66.946 20.152 67.178 20.576C67.41 21 67.526 21.516 67.526 22.124V26H66.446V22.28C66.446 21.624 66.282 21.124 65.954 20.78C65.634 20.428 65.198 20.252 64.646 20.252C64.078 20.252 63.626 20.436 63.29 20.804C62.954 21.164 62.786 21.688 62.786 22.376V26H61.706V22.28C61.706 21.624 61.542 21.124 61.214 20.78C60.894 20.428 60.458 20.252 59.906 20.252C59.338 20.252 58.886 20.436 58.55 20.804C58.214 21.164 58.046 21.688 58.046 22.376V26H56.954V19.424H58.046V20.372C58.262 20.028 58.55 19.764 58.91 19.58C59.278 19.396 59.682 19.304 60.122 19.304C60.674 19.304 61.162 19.428 61.586 19.676C62.01 19.924 62.326 20.288 62.534 20.768C62.718 20.304 63.022 19.944 63.446 19.688C63.87 19.432 64.342 19.304 64.862 19.304ZM74.9093 19.424V26H73.8173V25.028C73.6093 25.364 73.3173 25.628 72.9413 25.82C72.5733 26.004 72.1653 26.096 71.7173 26.096C71.2053 26.096 70.7453 25.992 70.3373 25.784C69.9293 25.568 69.6053 25.248 69.3653 24.824C69.1333 24.4 69.0173 23.884 69.0173 23.276V19.424H70.0973V23.132C70.0973 23.78 70.2613 24.28 70.5893 24.632C70.9173 24.976 71.3653 25.148 71.9333 25.148C72.5173 25.148 72.9773 24.968 73.3133 24.608C73.6493 24.248 73.8173 23.724 73.8173 23.036V19.424H74.9093ZM77.6411 24.488L76.2971 27.716H75.5651L76.4411 24.488H77.6411Z" fill="#2B2B2B"/>
</g>
<defs>
<filter id="filter0_d_50_258" x="3.5" y="6.375" width="83" height="46.25" filterUnits="userSpaceOnUse" color-interpolation-filters="sRGB">
<feFlood flood-opacity="0" result="BackgroundImageFix"/>
<feColorMatrix in="SourceAlpha" type="matrix" values="0 0 0 0 0 0 0 0 0 0 0 0 0 0 0 0 0 0 127 0" result="hardAlpha"/>
<feOffset dy="4"/>
<feGaussianBlur stdDeviation="2"/>
<feComposite in2="hardAlpha" operator="out"/>
<feColorMatrix type="matrix" values="0 0 0 0 0 0 0 0 0 0 0 0 0 0 0 0 0 0 0.25 0"/>
<feBlend mode="normal" in2="BackgroundImageFix" result="effect1_dropShadow_50_258"/>
<feBlend mode="normal" in="SourceGraphic" in2="effect1_dropShadow_50_258" result="shape"/>
</filter>
<linearGradient id="paint0_linear_50_258" x1="45" y1="14" x2="65" y2="91" gradientUnits="userSpaceOnUse">
<stop stop-color="#FFD546"/>
<stop offset="1" stop-color="#D0A100"/>
</linearGradient>
<clipPath id="clip0_50_258">
<rect width="90" height="51" fill="white" transform="matrix(-1 0 0 1 90 0)"/>
</clipPath>
</defs>
</svg>
