<svg width="35" height="35" viewBox="0 0 35 35" fill="none" xmlns="http://www.w3.org/2000/svg">
<path d="M21.875 21.8748C24.0625 21.8748 25.5208 23.2463 25.5208 24.7915H29.8958V2.9165H25.5208C25.5208 4.37484 24.0625 5.83317 21.875 5.83317C19.6875 5.83317 18.2291 4.37484 18.2291 2.9165H13.8541V13.1248" fill="#F0BE15"/>
<path d="M21.875 21.8748C24.0625 21.8748 25.5208 23.2463 25.5208 24.7915H29.8958V2.9165H25.5208C25.5208 4.37484 24.0625 5.83317 21.875 5.83317C19.6875 5.83317 18.2291 4.37484 18.2291 2.9165H13.8541V13.1248" stroke="black" stroke-linecap="round" stroke-linejoin="round"/>
<path d="M19.2002 13.212V13.508H18.4402V16H18.0762V13.508H17.3122V13.212H19.2002ZM19.7722 13.212V16H19.4082V13.212H19.7722ZM20.0166 14.604C20.0166 14.332 20.0779 14.088 20.2006 13.872C20.3233 13.6533 20.4899 13.4827 20.7006 13.36C20.9139 13.2373 21.1499 13.176 21.4086 13.176C21.7126 13.176 21.9779 13.2493 22.2046 13.396C22.4313 13.5427 22.5966 13.7507 22.7006 14.02H22.2646C22.1873 13.852 22.0753 13.7227 21.9286 13.632C21.7846 13.5413 21.6113 13.496 21.4086 13.496C21.2139 13.496 21.0393 13.5413 20.8846 13.632C20.7299 13.7227 20.6086 13.852 20.5206 14.02C20.4326 14.1853 20.3886 14.38 20.3886 14.604C20.3886 14.8253 20.4326 15.02 20.5206 15.188C20.6086 15.3533 20.7299 15.4813 20.8846 15.572C21.0393 15.6627 21.2139 15.708 21.4086 15.708C21.6113 15.708 21.7846 15.664 21.9286 15.576C22.0753 15.4853 22.1873 15.356 22.2646 15.188H22.7006C22.5966 15.4547 22.4313 15.6613 22.2046 15.808C21.9779 15.952 21.7126 16.024 21.4086 16.024C21.1499 16.024 20.9139 15.964 20.7006 15.844C20.4899 15.7213 20.3233 15.552 20.2006 15.336C20.0779 15.12 20.0166 14.876 20.0166 14.604ZM24.5145 16L23.3665 14.728V16H23.0025V13.212H23.3665V14.504L24.5185 13.212H24.9785L23.7145 14.608L24.9905 16H24.5145ZM25.521 13.508V14.44H26.537V14.74H25.521V15.7H26.657V16H25.157V13.208H26.657V13.508H25.521ZM28.6838 13.212V13.508H27.9238V16H27.5598V13.508H26.7958V13.212H28.6838Z" fill="#2B2B2B"/>
<path d="M21.875 32.083H17.5C17.5 30.5378 16.0416 29.1663 13.8541 29.1663C11.6666 29.1663 10.2083 30.5378 10.2083 32.083H5.83331V10.208H10.2083C10.2083 11.6663 11.6666 13.1247 13.8541 13.1247C16.0416 13.1247 17.5 11.6663 17.5 10.208H21.875V32.083Z" fill="#D0A100" stroke="black" stroke-linecap="round" stroke-linejoin="round"/>
<path d="M10.2083 18.9582C11.0137 18.9582 11.6667 18.3053 11.6667 17.4998C11.6667 16.6944 11.0137 16.0415 10.2083 16.0415C9.40292 16.0415 8.75 16.6944 8.75 17.4998C8.75 18.3053 9.40292 18.9582 10.2083 18.9582Z" fill="white"/>
<path d="M13.8541 18.9582C14.6596 18.9582 15.3125 18.3053 15.3125 17.4998C15.3125 16.6944 14.6596 16.0415 13.8541 16.0415C13.0487 16.0415 12.3958 16.6944 12.3958 17.4998C12.3958 18.3053 13.0487 18.9582 13.8541 18.9582Z" fill="white"/>
<path d="M17.5 18.9582C18.3054 18.9582 18.9583 18.3053 18.9583 17.4998C18.9583 16.6944 18.3054 16.0415 17.5 16.0415C16.6945 16.0415 16.0416 16.6944 16.0416 17.4998C16.0416 18.3053 16.6945 18.9582 17.5 18.9582Z" fill="white"/>
<path d="M10.2002 22.212V22.508H9.44017V25H9.07617V22.508H8.31217V22.212H10.2002ZM10.7722 22.212V25H10.4082V22.212H10.7722ZM11.0166 23.604C11.0166 23.332 11.0779 23.088 11.2006 22.872C11.3233 22.6533 11.4899 22.4827 11.7006 22.36C11.9139 22.2373 12.1499 22.176 12.4086 22.176C12.7126 22.176 12.9779 22.2493 13.2046 22.396C13.4313 22.5427 13.5966 22.7507 13.7006 23.02H13.2646C13.1873 22.852 13.0753 22.7227 12.9286 22.632C12.7846 22.5413 12.6113 22.496 12.4086 22.496C12.2139 22.496 12.0393 22.5413 11.8846 22.632C11.7299 22.7227 11.6086 22.852 11.5206 23.02C11.4326 23.1853 11.3886 23.38 11.3886 23.604C11.3886 23.8253 11.4326 24.02 11.5206 24.188C11.6086 24.3533 11.7299 24.4813 11.8846 24.572C12.0393 24.6627 12.2139 24.708 12.4086 24.708C12.6113 24.708 12.7846 24.664 12.9286 24.576C13.0753 24.4853 13.1873 24.356 13.2646 24.188H13.7006C13.5966 24.4547 13.4313 24.6613 13.2046 24.808C12.9779 24.952 12.7126 25.024 12.4086 25.024C12.1499 25.024 11.9139 24.964 11.7006 24.844C11.4899 24.7213 11.3233 24.552 11.2006 24.336C11.0779 24.12 11.0166 23.876 11.0166 23.604ZM15.5145 25L14.3665 23.728V25H14.0025V22.212H14.3665V23.504L15.5185 22.212H15.9785L14.7145 23.608L15.9905 25H15.5145ZM16.521 22.508V23.44H17.537V23.74H16.521V24.7H17.657V25H16.157V22.208H17.657V22.508H16.521ZM19.6838 22.212V22.508H18.9238V25H18.5598V22.508H17.7958V22.212H19.6838Z" fill="#2B2B2B"/>
</svg>
